<svg xmlns="http://www.w3.org/2000/svg" width="233" height="49.782"><path d="M0 .428h26.288v5.678H7.739V9.8H25.86v5.678H7.739v4.083h18.9v5.794H0zm37.059 24.927h-9.644l12.4-12.6L27.687.428h10.461l7.039 7.311L52.225.428h9.566L49.815 12.6l12.211 12.755h-9.8l-7.622-7.739zm45.066-8.283H71.241v8.322h-7.816V.428h18.7c7.739 0 11.627 2.683 11.627 8.127v.35c.005 5.445-3.845 8.167-11.627 8.167zM71.241 6.106v5.366h10.772c2.411 0 3.616-.856 3.616-2.605V8.75c0-1.75-1.205-2.644-3.616-2.644zM96.168.428h7.777v18.744h17.3v6.183H96.168zM139.488 0h1.439a34.383 34.383 0 015.911.467 21.223 21.223 0 014.433 1.205 12.407 12.407 0 013.15 1.828 10.792 10.792 0 012.1 2.139 10.2 10.2 0 011.206 2.333 12.8 12.8 0 01.622 2.294 17.974 17.974 0 01.117 2.1v1.011a17.785 17.785 0 01-.117 2.061 8.872 8.872 0 01-.622 2.294 9.721 9.721 0 01-1.206 2.372 10.9 10.9 0 01-2.1 2.178 12.407 12.407 0 01-3.15 1.828 19.955 19.955 0 01-4.433 1.205 34.383 34.383 0 01-5.911.467h-1.439a34.853 34.853 0 01-5.95-.467 23.567 23.567 0 01-4.472-1.205 15.541 15.541 0 01-3.15-1.828 10.9 10.9 0 01-2.1-2.178 11.388 11.388 0 01-1.789-4.666 17.805 17.805 0 01-.117-2.061v-1.05a17.994 17.994 0 01.117-2.1 11.019 11.019 0 01.583-2.294 10.476 10.476 0 011.206-2.372 10.8 10.8 0 012.1-2.139 13.675 13.675 0 013.15-1.828 20.979 20.979 0 014.472-1.205 46.8 46.8 0 015.95-.389zm10.811 12.561a6.839 6.839 0 00-.233-1.789 5.347 5.347 0 00-.894-1.75 5.613 5.613 0 00-1.75-1.517 9.628 9.628 0 00-2.917-1.05 19.881 19.881 0 00-4.278-.428c-6.727 0-10.072 2.178-10.072 6.533v.389a6.494 6.494 0 00.428 2.294 6.277 6.277 0 001.439 2.139 7.265 7.265 0 003.15 1.711 17.9 17.9 0 005.094.622 17.713 17.713 0 005.094-.622 7.484 7.484 0 003.15-1.672 5.93 5.93 0 001.439-2.139 6.334 6.334 0 00.428-2.294v-.428zm18.587 3.967v8.827h-7.816V.428h20.1c7.233 0 10.811 2.139 10.811 6.455v.389a5.318 5.318 0 01-.467 2.255 4.15 4.15 0 01-1.244 1.633 8.691 8.691 0 01-1.478.972 9.285 9.285 0 01-1.439.583 6.271 6.271 0 013.383 2.022 5.286 5.286 0 011.322 3.733v3.658a7.228 7.228 0 00.467 3.033v.156h-7.933a2.7 2.7 0 01-.35-1.555v-2.879a4.255 4.255 0 00-1.167-3.344 6.033 6.033 0 00-4.005-1.05h-10.184zm0-10.422v4.9h11.822a3.748 3.748 0 002.372-.661 2.15 2.15 0 00.778-1.789v-.039a2.3 2.3 0 00-.778-1.75 3.673 3.673 0 00-2.372-.661h-11.822zM194.98.428h26.288v5.678h-18.55V9.8h18.122v5.678h-18.122v4.083h18.9v5.794h-26.6V.428zM232 19.521v5.872h-8.088v-5.872z"/><text transform="translate(0 44.782)" font-size="16" font-family="NeueHaasUnica-Light, Neue Haas Unica" font-weight="300"><tspan x="0" y="0">Expérimenter, Coopérer, Inspirer</tspan></text></svg>