<?xml version="1.0" standalone="no"?>
<!DOCTYPE svg PUBLIC "-//W3C//DTD SVG 20010904//EN"
 "http://www.w3.org/TR/2001/REC-SVG-20010904/DTD/svg10.dtd">
<svg version="1.0" xmlns="http://www.w3.org/2000/svg"
 width="200.000000pt" height="200.000000pt" viewBox="0 0 200.000000 200.000000"
 preserveAspectRatio="xMidYMid meet">
<metadata>
Created by potrace 1.10, written by Peter Selinger 2001-2011
</metadata>
<g transform="translate(0.000000,200.000000) scale(0.100000,-0.100000)"
fill="#000000" stroke="none">
<path d="M758 1734 c-83 -44 -68 -177 23 -205 92 -29 170 53 139 146 -21 65
-100 93 -162 59z m71 -23 c6 -10 7 -22 3 -26 -4 -4 3 -4 15 -1 31 10 42 -16
32 -72 -5 -24 -14 -51 -20 -58 -13 -16 -49 -19 -49 -4 0 5 -10 9 -21 7 -12 -1
-23 4 -25 11 -1 7 0 8 3 2 2 -5 10 -10 16 -10 6 0 0 11 -13 26 -16 16 -21 28
-14 32 28 18 6 49 -29 43 -5 -1 -6 2 -3 7 8 13 61 9 59 -4 -1 -6 5 -11 13 -11
26 0 15 28 -16 38 -36 13 -30 31 8 23 21 -4 24 -3 12 5 -13 9 -13 11 2 11 10
0 22 -8 27 -19z"/>
<path d="M1041 1708 c-39 -53 -41 -95 -4 -138 32 -39 65 -52 108 -44 52 9 87
46 93 99 4 44 3 48 -36 86 -39 37 -62 49 -62 31 0 -4 6 -14 13 -21 10 -11 9
-12 -2 -6 -9 5 -12 4 -7 -3 4 -7 16 -12 26 -12 19 0 50 -25 50 -40 0 -5 -6
-15 -14 -22 -10 -9 -10 -17 -3 -30 17 -26 -27 -57 -80 -58 -40 0 -44 2 -63 42
-24 50 -24 49 -6 42 9 -4 15 7 19 37 6 48 25 66 44 41 11 -15 12 -14 13 11 0
23 -4 27 -29 27 -23 0 -36 -9 -60 -42z"/>
<path d="M454 1430 c-33 -13 -54 -55 -54 -106 0 -39 5 -51 31 -75 17 -16 37
-28 43 -27 28 5 123 -25 154 -49 40 -30 82 -114 76 -150 -10 -57 53 -123 118
-123 57 0 112 60 107 120 -4 58 36 128 95 164 38 24 59 30 100 30 92 -2 171
-63 181 -141 11 -87 16 -103 41 -133 33 -39 83 -48 133 -25 62 27 81 87 50
151 -21 45 -46 59 -119 68 -24 2 -49 12 -56 20 -6 9 -18 16 -26 16 -16 0 -60
44 -77 77 -6 12 -11 41 -11 65 0 80 -47 128 -127 128 -54 0 -103 -53 -103
-112 0 -144 -153 -237 -281 -172 -46 23 -99 89 -99 124 0 7 -8 19 -17 26 -17
12 -17 13 -1 14 25 0 6 59 -32 93 -32 28 -82 35 -126 17z m657 -20 c10 -6 19
-7 19 -2 0 5 7 9 15 9 8 0 15 -6 15 -13 0 -7 5 -16 12 -20 8 -5 9 -1 4 12 -6
15 -5 16 5 7 10 -10 8 -26 -5 -77 -21 -75 -33 -90 -72 -80 -19 5 -25 4 -20 -5
5 -7 -2 -11 -19 -11 -14 0 -24 -4 -21 -8 8 -13 -28 -11 -36 2 -9 14 0 26 22
26 16 0 17 4 7 29 -6 16 -7 36 -2 47 4 10 9 25 11 32 3 16 33 62 40 62 3 0 14
-5 25 -10z m-570 -16 c10 -13 10 -17 0 -24 -8 -4 -11 -12 -7 -18 3 -6 -3 -14
-15 -17 -17 -6 -19 -9 -8 -17 10 -7 6 -8 -13 -4 -17 4 -28 2 -28 -4 0 -6 5 -8
10 -5 6 3 10 1 10 -5 0 -6 6 -8 13 -5 6 4 3 -1 -7 -9 -25 -20 -31 -20 -50 0
-19 18 -21 34 -5 34 8 0 8 5 -1 15 -9 11 -9 15 -1 15 7 0 10 3 7 8 -7 11 17
39 39 45 35 8 42 7 56 -9z m55 -50 c1 -39 15 -87 27 -96 14 -9 -11 -40 -25
-32 -6 4 -5 10 3 15 9 5 -3 7 -29 4 -24 -2 -50 -1 -58 2 -16 6 -19 33 -4 33 6
0 10 4 10 9 0 18 55 100 65 97 6 -1 10 -16 11 -32z m620 -92 c-3 -2 -11 2 -19
9 -11 11 -12 20 -4 44 l11 30 8 -39 c5 -21 6 -41 4 -44z m-295 -178 c-12 -26
-21 -59 -21 -75 0 -19 -6 -30 -20 -34 -11 -3 -20 -11 -20 -17 0 -5 -6 -8 -12
-6 -7 3 -19 -2 -27 -10 -13 -12 -16 -12 -26 2 -13 17 -30 23 -20 6 3 -5 1 -10
-4 -10 -6 0 -11 2 -11 5 0 11 26 50 45 67 11 9 15 17 8 18 -6 0 -15 -5 -18
-10 -4 -6 -11 -8 -16 -5 -5 4 -9 -3 -9 -15 0 -34 -25 -18 -28 18 -2 18 -7 32
-11 32 -9 0 -8 31 3 48 4 6 2 12 -3 12 -6 0 -11 4 -11 8 0 5 7 9 15 9 8 0 15
-4 15 -9 0 -5 4 -7 9 -4 5 4 21 2 34 -3 18 -7 27 -7 31 2 3 9 7 8 15 -3 7 -10
11 -11 11 -2 0 6 5 12 10 12 15 0 12 -22 -6 -48 -12 -18 -19 -20 -35 -11 -11
5 -25 9 -32 6 -6 -2 3 -9 21 -15 35 -12 32 -14 92 56 42 49 49 40 21 -24z
m435 40 c-5 -14 -4 -15 8 -5 11 9 15 8 20 -4 6 -17 37 -20 53 -4 13 13 53 -8
53 -28 0 -7 7 -10 16 -6 13 5 15 3 7 -13 -6 -10 -8 -25 -6 -31 3 -7 1 -13 -4
-13 -5 0 -15 -16 -22 -35 -12 -34 -45 -49 -53 -24 -2 5 -11 11 -20 12 -9 2
-22 8 -29 14 -8 6 -18 11 -24 11 -5 0 -11 6 -13 12 -3 8 3 10 19 5 l24 -8 -20
23 c-11 12 -19 25 -18 29 0 3 -3 5 -8 4 -5 -2 -9 5 -9 15 0 29 12 62 22 62 6
0 7 -7 4 -16z"/>
<path d="M752 1424 c-45 -31 -57 -84 -32 -149 21 -54 108 -75 158 -38 62 46
70 117 18 169 -28 28 -41 34 -78 34 -24 0 -54 -7 -66 -16z m88 -6 c-1 -37 -14
-59 -31 -55 -13 3 -17 1 -12 -6 4 -7 7 -25 6 -42 l-2 -30 7 29 c4 17 12 29 17
27 6 -1 13 8 17 21 3 13 6 18 7 12 1 -6 11 -9 24 -7 19 4 22 0 22 -26 0 -18
-5 -31 -12 -31 -7 0 -13 -5 -13 -11 0 -5 5 -7 11 -3 7 4 10 1 7 -7 -3 -8 -11
-13 -17 -11 -6 1 -11 -4 -11 -10 0 -7 -11 -14 -25 -14 -16 -1 -25 3 -25 13 0
13 -3 13 -24 0 -22 -15 -25 -15 -30 0 -4 9 -1 20 5 24 6 4 8 12 4 18 -5 9 -11
7 -22 -6 -13 -17 -14 -16 -9 9 4 15 1 30 -4 33 -12 8 26 60 43 60 7 0 18 4 26
9 10 6 12 5 7 -2 -4 -7 -1 -12 8 -12 10 0 13 6 10 15 -4 8 -1 15 5 15 6 0 11
-6 11 -12z"/>
<path d="M1374 1429 c-48 -24 -68 -103 -39 -158 30 -60 139 -68 182 -14 25 30
31 99 13 134 -23 41 -106 62 -156 38z m90 -30 c-3 -5 1 -6 9 -3 8 3 18 1 22
-5 3 -6 1 -11 -5 -11 -6 0 -8 -5 -5 -10 4 -6 11 -8 16 -5 5 4 9 -4 9 -17 0
-18 -2 -20 -10 -8 -6 10 -10 11 -10 3 0 -7 -8 -13 -17 -14 -14 0 -14 -2 3 -9
27 -11 37 -26 28 -42 -5 -7 -11 -5 -21 7 -7 11 -13 13 -13 7 0 -7 -7 -12 -16
-12 -8 0 -12 -5 -9 -11 4 -6 13 -8 21 -5 7 3 16 1 19 -3 8 -13 -26 -23 -40
-11 -6 5 -14 7 -17 5 -3 -3 -17 -1 -32 4 -24 10 -26 14 -26 76 0 37 4 65 10
65 6 0 9 -5 8 -11 -2 -6 4 -14 12 -16 10 -3 11 -2 4 4 -7 5 -8 16 -3 28 5 13
8 15 8 5 1 -13 2 -13 11 0 8 12 10 12 10 -5 0 -16 2 -17 9 -5 6 8 7 19 3 25
-3 5 2 4 11 -4 9 -7 14 -17 11 -22z"/>
<path d="M464 1121 c-73 -33 -90 -121 -34 -181 48 -52 110 -52 161 0 24 24 29
37 29 77 0 41 -5 54 -27 75 -29 26 -65 48 -80 48 -4 0 -26 -9 -49 -19z m76
-36 c10 -12 15 -13 21 -4 6 10 11 10 24 -1 14 -12 13 -17 -17 -48 -24 -25 -27
-32 -11 -23 31 16 35 14 31 -11 -2 -15 -11 -24 -25 -26 -14 -2 -20 -8 -16 -18
3 -9 -2 -14 -16 -14 -12 0 -21 4 -21 10 0 5 -7 6 -17 3 -11 -4 -14 -3 -9 6 6
10 4 10 -12 0 -39 -24 -70 25 -36 58 8 9 14 25 12 37 -2 11 1 26 7 33 14 17
70 16 85 -2z"/>
<path d="M1067 1113 c-40 -28 -64 -83 -54 -126 9 -33 53 -74 89 -82 65 -15
138 47 138 117 0 52 -67 119 -117 117 -10 0 -35 -12 -56 -26z m66 -11 c-8 -5
-8 -12 3 -26 7 -11 17 -16 21 -12 4 4 1 11 -6 15 -8 5 -9 11 -3 15 13 8 33
-17 35 -42 0 -11 6 -18 12 -16 5 2 10 -7 10 -21 0 -19 -5 -25 -22 -25 -13 0
-23 5 -23 10 0 6 -5 10 -12 10 -9 0 -9 -3 0 -12 19 -19 14 -49 -8 -55 -11 -3
-17 -9 -14 -14 3 -5 0 -9 -5 -9 -6 0 -11 7 -11 16 0 11 -5 14 -16 10 -12 -5
-15 -2 -10 10 4 12 2 15 -9 10 -26 -9 -38 29 -20 64 18 35 25 37 48 10 20 -24
34 -26 34 -5 0 8 -4 12 -9 9 -5 -3 -18 2 -29 12 -18 16 -18 18 -3 36 10 10 24
18 33 18 11 0 12 -3 4 -8z"/>
<path d="M762 810 c-34 -21 -62 -66 -62 -100 0 -29 26 -76 52 -94 32 -23 100
-20 131 4 31 25 51 81 42 118 -7 31 -52 82 -72 82 -7 0 -36 -16 -63 -35 -27
-19 -54 -35 -60 -35 -17 0 29 39 62 53 24 10 28 15 16 19 -8 4 -29 -2 -46 -12z
m96 -41 c-10 -7 -9 -9 4 -9 9 0 24 -7 32 -16 14 -14 14 -17 1 -30 -13 -14 -18
-12 -39 13 -13 15 -28 24 -33 20 -4 -5 -1 -14 7 -20 8 -7 23 -24 32 -39 15
-23 15 -28 3 -38 -8 -7 -15 -10 -15 -7 0 3 -12 0 -26 -8 -34 -17 -48 -11 -74
32 -22 38 -20 54 5 33 10 -8 15 -9 15 -1 0 6 -4 11 -10 11 -5 0 -10 6 -10 13
0 18 34 49 43 40 4 -3 7 -1 7 6 0 7 4 10 9 6 5 -3 12 -1 15 4 3 5 15 7 27 4
16 -4 17 -8 7 -14z"/>
<path d="M1050 792 c-33 -33 -40 -46 -40 -80 0 -32 7 -47 38 -80 36 -40 102
-67 102 -43 0 6 6 11 13 11 36 1 77 64 77 121 0 45 -54 99 -107 106 -40 5 -46
3 -83 -35z m127 -14 c7 -6 13 -17 13 -24 0 -8 5 -14 10 -14 15 0 12 -40 -4
-46 -8 -3 -17 -20 -20 -37 -5 -25 -9 -29 -16 -17 -5 8 -10 10 -10 4 0 -18 -31
-26 -46 -13 -11 9 -14 8 -14 -2 0 -11 -2 -11 -9 1 -6 8 -7 18 -4 24 3 5 1 6
-5 2 -15 -9 -22 6 -24 53 -2 50 17 77 40 59 13 -11 15 -10 9 4 -3 9 -1 19 6
22 16 6 58 -3 74 -16z"/>
<path d="M429 513 c-1 -5 -2 -32 -3 -60 -1 -51 0 -53 27 -53 15 0 30 0 34 -1
4 0 9 4 11 10 2 6 -8 11 -22 11 -24 0 -26 3 -26 50 0 28 -4 50 -10 50 -5 0
-11 -3 -11 -7z"/>
<path d="M522 459 c4 -79 23 -81 23 -2 0 37 -4 58 -13 61 -10 3 -12 -11 -10
-59z"/>
<path d="M570 507 c0 -22 42 -117 51 -117 9 0 59 104 59 122 0 25 -25 -3 -38
-41 -16 -47 -26 -44 -39 8 -9 35 -33 55 -33 28z"/>
<path d="M698 460 c-2 -41 1 -61 10 -65 9 -3 12 13 12 60 0 82 -17 86 -22 5z"/>
<path d="M754 506 c-3 -7 -4 -35 -2 -62 4 -57 23 -58 22 -1 0 20 0 37 2 37 1
0 13 -18 25 -40 34 -60 54 -53 53 17 0 69 -24 89 -24 21 l-1 -43 -25 43 c-27
44 -41 52 -50 28z"/>
<path d="M902 504 c-15 -10 -22 -25 -22 -49 0 -43 30 -65 78 -58 27 5 32 9 32
34 0 26 -3 29 -32 29 -32 -1 -32 -1 -13 -16 17 -12 18 -16 5 -24 -21 -13 -50
7 -50 35 0 30 28 47 54 33 25 -14 35 1 12 18 -25 18 -36 18 -64 -2z"/>
<path d="M1068 509 c-28 -16 -22 -45 12 -59 17 -7 30 -17 30 -22 0 -6 -13 -8
-30 -4 -22 4 -30 2 -30 -8 0 -18 39 -28 62 -15 28 15 22 46 -14 66 l-33 18 33
3 c34 3 42 16 16 26 -21 8 -26 7 -46 -5z"/>
<path d="M1172 504 c-33 -23 -30 -78 4 -101 24 -15 29 -15 53 -2 36 20 42 80
9 103 -28 20 -38 20 -66 0z m66 -52 c-2 -23 -8 -27 -33 -27 -24 0 -31 5 -33
24 -5 32 23 54 50 40 13 -7 18 -19 16 -37z"/>
<path d="M1290 460 c0 -33 4 -60 10 -60 6 0 10 27 10 60 0 33 -4 60 -10 60 -6
0 -10 -27 -10 -60z"/>
<path d="M1340 461 l0 -61 40 0 c22 0 40 5 40 10 0 6 -12 10 -27 10 -27 0 -28
2 -28 47 0 28 -5 48 -12 50 -10 4 -13 -12 -13 -56z"/>
<path d="M1452 508 c-22 -22 -14 -48 18 -59 39 -14 39 -31 0 -27 -34 3 -44
-11 -15 -22 55 -20 91 39 38 62 -37 16 -36 15 -28 27 4 7 12 8 24 1 23 -12 35
-2 20 17 -14 16 -41 17 -57 1z"/>
</g>
</svg>
